<?xml version="1.0" standalone="no"?>
<!DOCTYPE svg PUBLIC "-//W3C//DTD SVG 20010904//EN"
 "http://www.w3.org/TR/2001/REC-SVG-20010904/DTD/svg10.dtd">
<svg version="1.0" xmlns="http://www.w3.org/2000/svg"
 width="1600.000000pt" height="1600.000000pt" viewBox="0 0 1600.000000 1600.000000"
 preserveAspectRatio="xMidYMid meet">

<g transform="translate(0.000000,1600.000000) scale(0.100000,-0.100000)"
fill="#000000" stroke="none">
<path d="M6885 12122 c-202 -123 -226 -140 -360 -255 -60 -52 -126 -102 -145
-112 -101 -52 -839 -651 -1395 -1134 -655 -569 -981 -877 -1616 -1531 -382
-394 -566 -594 -802 -873 l-117 -138 0 -58 0 -58 77 -60 c43 -33 110 -89 148
-123 117 -104 110 -102 163 -44 24 27 192 211 371 409 l326 360 7 -75 c4 -41
8 -133 9 -205 9 -704 50 -1458 99 -1850 20 -157 82 -578 86 -583 1 -2 38 3 81
12 43 9 130 20 193 26 63 6 145 15 181 21 l67 10 6 87 c10 121 -9 473 -44 817
-66 654 -93 1160 -95 1782 l-1 471 320 299 c177 165 375 348 441 408 171 155
417 387 580 546 279 272 290 281 775 624 162 115 363 258 445 319 83 60 200
142 260 182 61 39 131 87 157 107 l46 36 219 -89 c120 -48 252 -104 293 -123
41 -19 167 -76 280 -128 430 -196 676 -324 1220 -634 157 -89 391 -220 520
-292 129 -71 271 -156 315 -189 46 -34 128 -81 190 -108 149 -67 159 -73 584
-350 52 -33 175 -115 275 -182 l181 -121 -3 -129 c-1 -71 -7 -315 -12 -541
-14 -549 -13 -1688 0 -1839 10 -105 39 -336 56 -433 5 -33 6 -33 47 -27 23 3
143 15 266 26 153 13 227 23 233 32 24 38 30 100 24 258 -6 182 -30 448 -47
531 -6 30 -15 162 -20 294 -4 132 -13 260 -18 285 -5 25 -12 119 -15 210 -4
91 -13 300 -21 465 -19 406 -23 515 -16 515 4 0 65 -46 136 -101 72 -56 195
-145 275 -197 80 -52 163 -108 185 -124 127 -91 227 -155 291 -184 l72 -34
176 174 176 174 -93 75 c-107 87 -210 155 -247 164 -32 7 -114 63 -420 285
-208 152 -338 257 -471 378 l-27 25 9 250 c5 138 12 342 16 455 5 113 7 386 5
606 l-2 402 -193 1 c-105 1 -245 6 -311 12 -65 5 -121 7 -125 4 -3 -4 -6 -316
-6 -695 0 -379 -3 -691 -7 -695 -4 -4 -85 47 -180 113 -300 208 -559 366 -909
553 -85 45 -377 215 -649 377 -272 162 -599 356 -726 432 -127 75 -338 205
-470 287 -378 236 -516 314 -583 327 -18 3 -72 23 -120 45 -89 40 -373 132
-426 137 -23 3 -65 -18 -190 -94z"/>
<path d="M7270 10670 c0 -5 7 -10 15 -10 8 0 15 5 15 10 0 6 -7 10 -15 10 -8
0 -15 -4 -15 -10z"/>
<path d="M7230 10123 c-63 -7 -282 -54 -369 -79 -94 -28 -255 -95 -360 -151
-184 -99 -413 -300 -579 -511 -132 -167 -243 -394 -273 -562 -14 -76 -20 -502
-8 -515 4 -3 71 14 150 39 134 41 198 59 307 86 l43 11 -1 147 -1 147 44 120
c24 66 70 174 102 240 56 116 63 124 178 238 68 67 139 128 166 141 111 56
400 165 466 175 39 6 153 14 255 17 162 5 198 3 289 -15 93 -18 115 -27 230
-94 69 -41 155 -89 191 -108 69 -36 214 -172 378 -356 l83 -91 -35 -27 c-20
-15 -74 -76 -122 -136 -82 -105 -97 -139 -60 -139 9 0 78 -29 154 -64 196 -91
621 -240 805 -282 71 -16 81 -17 105 -3 26 15 27 19 25 90 -3 86 -29 370 -44
479 -11 79 -105 509 -120 548 -15 39 -67 30 -141 -25 -34 -25 -95 -70 -135
-100 -40 -29 -76 -53 -81 -53 -6 0 -22 17 -38 38 -73 96 -299 313 -449 430
-194 151 -304 208 -545 282 -257 79 -433 103 -610 83z"/>
<path d="M5975 7964 c-4 -48 -4 -172 0 -275 4 -114 2 -293 -6 -454 -6 -146 -9
-268 -6 -271 3 -3 56 26 119 65 174 107 213 106 283 -8 27 -43 55 -72 107
-108 70 -48 124 -88 239 -176 84 -65 160 -108 266 -154 49 -20 91 -42 95 -49
10 -15 44 -28 143 -54 44 -12 122 -35 173 -51 57 -18 114 -29 149 -29 97 0
309 30 513 72 193 40 230 52 325 112 28 18 66 38 85 46 159 62 343 191 505
354 139 139 214 246 331 471 97 185 126 251 122 278 -2 13 -29 39 -73 68 -72
48 -280 166 -303 171 -7 2 -45 -66 -95 -173 -113 -238 -222 -393 -377 -535
-76 -70 -188 -154 -206 -154 -8 0 -69 -18 -137 -41 -67 -22 -180 -53 -252 -68
l-130 -29 -270 8 c-325 10 -398 22 -499 81 -116 69 -259 170 -289 206 -16 18
-42 36 -59 41 -43 11 -73 52 -64 87 8 30 27 50 184 194 61 56 102 101 102 112
0 11 -15 35 -33 55 -30 33 -42 38 -162 65 -72 15 -186 47 -255 69 -101 32
-253 80 -502 157 -14 4 -17 -8 -23 -83z"/>
<path d="M7356 4841 c-17 -19 -17 -19 3 -14 12 3 21 12 21 19 0 18 -4 18 -24
-5z"/>
<path d="M7017 4773 c-12 -11 -8 -23 8 -23 8 0 15 7 15 15 0 16 -12 20 -23 8z"/>
</g>
</svg>
